<svg width="15" height="50" viewBox="0 0 15 50" fill="none" xmlns="http://www.w3.org/2000/svg">
<path d="M13.8125 16.1875C14.377 16.1875 14.875 16.6855 14.875 17.2832V30C14.875 30.5977 14.377 31.0625 13.8125 31.0625H1.0293C0.464844 31.0625 0 30.5977 0 30V17.2832C0 16.6855 0.464844 16.1875 1.0293 16.1875H13.8125ZM4.48242 28.9375V21.8652H2.29102V28.9375H4.48242ZM3.38672 20.8691C4.08398 20.8691 4.64844 20.3047 4.64844 19.6074C4.64844 18.9102 4.08398 18.3125 3.38672 18.3125C2.65625 18.3125 2.0918 18.9102 2.0918 19.6074C2.0918 20.3047 2.65625 20.8691 3.38672 20.8691ZM12.75 28.9375V25.0527C12.75 23.1602 12.3184 21.666 10.0938 21.666C9.03125 21.666 8.30078 22.2637 8.00195 22.8281H7.96875V21.8652H5.87695V28.9375H8.06836V25.4512C8.06836 24.5215 8.23438 23.625 9.39648 23.625C10.5254 23.625 10.5254 24.6875 10.5254 25.4844V28.9375H12.75Z" fill="white"/>
<a href="https://www.figma.com/design/Nx4sNsAeWJfmVVOXuDSmxJ?node-id=2-828">
<rect fill="black" fill-opacity="0" y="-1.275" width="14.875" height="19.55"/>
</a>
</svg>
