<svg width="73" height="55" viewBox="0 0 73 55" fill="none" xmlns="http://www.w3.org/2000/svg">
<rect width="72.78" height="55" rx="10" />
<path d="M33.8 32.4041L37.895 36.4781C37.965 36.5481 38 36.6391 38 36.7511C38 36.8631 37.965 36.9541 37.895 37.0241L36.551 38.3681C36.481 38.4381 36.39 38.4731 36.278 38.4731C36.166 38.4731 36.075 38.4381 36.005 38.3681L35.627 37.9691L35.438 37.8011C35.34 37.7171 35.284 37.6681 35.27 37.6541L31.952 34.3361C31.882 34.2521 31.784 34.2101 31.658 34.2101C31.546 34.1961 31.448 34.2241 31.364 34.2941C30.608 34.8261 29.789 35.2391 28.907 35.5331C27.997 35.8271 27.066 35.9741 26.114 35.9741C24.462 35.9741 22.929 35.5611 21.515 34.7351C20.143 33.9231 19.051 32.8311 18.239 31.4591C17.413 30.0451 17 28.5121 17 26.8601C17 25.2081 17.413 23.6751 18.239 22.2611C19.051 20.8891 20.143 19.7971 21.515 18.9851C22.929 18.1591 24.462 17.7461 26.114 17.7461C27.766 17.7461 29.292 18.1591 30.692 18.9851C32.064 19.7971 33.156 20.8891 33.968 22.2611C34.794 23.6751 35.207 25.2081 35.207 26.8601C35.207 28.6521 34.724 30.2971 33.758 31.7951C33.702 31.8931 33.674 31.9981 33.674 32.1101C33.688 32.2221 33.73 32.3201 33.8 32.4041ZM31.616 31.1021C32.078 30.5001 32.435 29.8421 32.687 29.1281C32.939 28.4001 33.065 27.6441 33.065 26.8601C33.065 25.6001 32.75 24.4311 32.12 23.3531C31.504 22.2891 30.671 21.4491 29.621 20.8331C28.543 20.2031 27.374 19.8881 26.114 19.8881C24.854 19.8881 23.685 20.2031 22.607 20.8331C21.543 21.4491 20.703 22.2891 20.087 23.3531C19.457 24.4311 19.142 25.6001 19.142 26.8601C19.142 28.1201 19.457 29.2891 20.087 30.3671C20.703 31.4311 21.543 32.2711 22.607 32.8871C23.685 33.5171 24.854 33.8321 26.114 33.8321C26.954 33.8321 27.759 33.6921 28.529 33.4121C29.299 33.1181 29.992 32.7051 30.608 32.1731C30.986 31.8511 31.322 31.4941 31.616 31.1021Z" fill="black"
/>
</svg>
