<svg width="15" height="50" viewBox="0 0 15 50" fill="none" xmlns="http://www.w3.org/2000/svg">
<path d="M14.0781 25.0859C14.5762 25.7168 14.875 26.5137 14.8418 27.3438C14.8418 29.4023 13.1816 31.0625 11.123 31.0625C10.293 31.0625 9.49609 30.7969 8.86523 30.2988C8.40039 30.3984 7.90234 30.4648 7.4043 30.4648C3.65234 30.4648 0.597656 27.4102 0.597656 23.625C0.597656 23.1602 0.664062 22.6621 0.763672 22.1973C0.265625 21.5664 0 20.7695 0 19.9062C0 17.8809 1.66016 16.1875 3.71875 16.1875C4.54883 16.1875 5.3457 16.4863 5.97656 16.9844C6.44141 16.8848 6.93945 16.8184 7.4375 16.8184C11.1895 16.8184 14.2441 19.873 14.2441 23.625C14.2441 24.123 14.1777 24.6211 14.0781 25.0859ZM7.63672 28.1406C9.46289 28.1406 11.3555 27.2109 11.3555 25.252C11.3555 23.5586 9.69531 22.9941 8.33398 22.6953C6.74023 22.2969 6.04297 22.2305 6.04297 21.5996C6.04297 21.0684 6.57422 20.8359 7.4375 20.8359C8.96484 20.8359 8.99805 21.9648 9.92773 21.9648C10.5586 21.9648 10.9238 21.4668 10.9238 20.9023C10.9238 19.7734 9.06445 19.043 7.23828 19.043C5.57812 19.043 3.61914 19.7734 3.61914 21.7656C3.61914 23.9238 5.47852 24.123 7.53711 24.6543C8.40039 24.8535 8.93164 24.9531 8.93164 25.584C8.93164 26.082 8.36719 26.4473 7.53711 26.4473C5.74414 26.4473 5.64453 24.9531 4.61523 24.9531C3.91797 24.9531 3.61914 25.4512 3.61914 25.9824C3.61914 27.1777 5.44531 28.1406 7.63672 28.1406Z" fill="white"/>
<a href="https://www.figma.com/design/Nx4sNsAeWJfmVVOXuDSmxJ?node-id=2-828">
<rect fill="black" fill-opacity="0" y="-1.275" width="14.875" height="19.55"/>
</a>
</svg>
