<svg width="17" height="50" viewBox="0 0 17 50" fill="none" xmlns="http://www.w3.org/2000/svg">
<path d="M15.2402 20.1719C15.2402 20.3379 15.2402 20.4707 15.2402 20.6367C15.2402 25.252 11.7539 30.5312 5.3457 30.5312C3.35352 30.5312 1.52734 29.9668 0 28.9707C0.265625 29.0039 0.53125 29.0371 0.830078 29.0371C2.45703 29.0371 3.95117 28.4727 5.14648 27.543C3.61914 27.5098 2.32422 26.5137 1.89258 25.1191C2.125 25.1523 2.32422 25.1855 2.55664 25.1855C2.85547 25.1855 3.1875 25.1191 3.45312 25.0527C1.85938 24.7207 0.664062 23.3262 0.664062 21.6328V21.5996C1.12891 21.8652 1.69336 21.998 2.25781 22.0312C1.29492 21.4004 0.697266 20.3379 0.697266 19.1426C0.697266 18.4785 0.863281 17.8809 1.16211 17.3828C2.88867 19.4746 5.47852 20.8691 8.36719 21.0352C8.30078 20.7695 8.26758 20.5039 8.26758 20.2383C8.26758 18.3125 9.82812 16.752 11.7539 16.752C12.75 16.752 13.6465 17.1504 14.3105 17.8477C15.0742 17.6816 15.8379 17.3828 16.502 16.9844C16.2363 17.8145 15.7051 18.4785 14.9746 18.9102C15.6719 18.8438 16.3691 18.6445 16.9668 18.3789C16.502 19.0762 15.9043 19.6738 15.2402 20.1719Z" fill="white"/>
<a href="https://www.figma.com/design/Nx4sNsAeWJfmVVOXuDSmxJ?node-id=2-828">
<rect fill="black" fill-opacity="0" y="-1.275" width="17" height="19.55"/>
</a>
</svg>
