<svg width="14" height="15" viewBox="0 0 14 15" fill="none" xmlns="http://www.w3.org/2000/svg">
<path d="M9.19922 6.41602C8.47656 7.13867 7.59766 7.5 6.5625 7.5C5.52734 7.5 4.63867 7.13867 3.89648 6.41602C3.17383 5.67383 2.8125 4.78516 2.8125 3.75C2.8125 2.71484 3.17383 1.83594 3.89648 1.11328C4.63867 0.371094 5.52734 0 6.5625 0C7.59766 0 8.47656 0.371094 9.19922 1.11328C9.94141 1.83594 10.3125 2.71484 10.3125 3.75C10.3125 4.78516 9.94141 5.67383 9.19922 6.41602ZM9.19922 8.4375C10.2734 8.4375 11.1914 8.82812 11.9531 9.60938C12.7344 10.3711 13.125 11.2891 13.125 12.3633V13.5938C13.125 13.9844 12.9883 14.3164 12.7148 14.5898C12.4414 14.8633 12.1094 15 11.7188 15H1.40625C1.01562 15 0.683594 14.8633 0.410156 14.5898C0.136719 14.3164 0 13.9844 0 13.5938V12.3633C0 11.2891 0.380859 10.3711 1.14258 9.60938C1.92383 8.82812 2.85156 8.4375 3.92578 8.4375H4.42383C5.10742 8.75 5.82031 8.90625 6.5625 8.90625C7.30469 8.90625 8.01758 8.75 8.70117 8.4375H9.19922Z" fill="#FE543D"/>
<a href="https://www.figma.com/design/YKo1tjPVQy8v9XYDfNws4U/CourseHub---University--Online-Courses--School---Education-Figma-Template--Community-?node-id=6-1519">
<rect fill="black" fill-opacity="0" width="13.125" height="15"/>
</a>
</svg>
